<mxfile host="app.diagrams.net" agent="Mozilla/5.0 (Windows NT 10.0; Win64; x64) AppleWebKit/537.36 (KHTML, like Gecko) Chrome/135.0.0.0 Safari/537.36" version="27.0.6">
  <diagram name="1 oldal" id="U0_8vHW6DDy68jLZ_XkW">
    <mxGraphModel dx="2175" dy="818" grid="1" gridSize="10" guides="1" tooltips="1" connect="1" arrows="1" fold="1" page="1" pageScale="1" pageWidth="827" pageHeight="1169" math="0" shadow="0">
      <root>
        <mxCell id="0" />
        <mxCell id="1" parent="0" />
        <mxCell id="uUEu9b7Da4WRRUcWKuB5-6" value="Mtf.Extensions" style="rounded=1;whiteSpace=wrap;html=1;textShadow=0;fillColor=light-dark(#5AFF41,#97D077);strokeColor=light-dark(#000000,#0000FF);align=center;verticalAlign=middle;fontFamily=Helvetica;fontSize=12;fontColor=light-dark(#000000,#0000CC);fontStyle=1;strokeWidth=3;shadow=1;glass=1;" vertex="1" parent="1">
          <mxGeometry x="340" y="320" width="120" height="60" as="geometry" />
        </mxCell>
        <mxCell id="uUEu9b7Da4WRRUcWKuB5-26" style="edgeStyle=orthogonalEdgeStyle;rounded=0;orthogonalLoop=1;jettySize=auto;html=1;strokeColor=light-dark(#000000,#000000);" edge="1" parent="1" source="uUEu9b7Da4WRRUcWKuB5-9" target="uUEu9b7Da4WRRUcWKuB5-6">
          <mxGeometry relative="1" as="geometry" />
        </mxCell>
        <mxCell id="uUEu9b7Da4WRRUcWKuB5-9" value="Mtf.Wmi" style="rounded=1;whiteSpace=wrap;html=1;textShadow=0;fillColor=light-dark(#5AFF41,#97D077);strokeColor=light-dark(#000000,#0000FF);align=center;verticalAlign=middle;fontFamily=Helvetica;fontSize=12;fontColor=light-dark(#000000,#0000CC);fontStyle=1;strokeWidth=3;shadow=1;glass=1;" vertex="1" parent="1">
          <mxGeometry x="340" y="450" width="120" height="60" as="geometry" />
        </mxCell>
        <mxCell id="uUEu9b7Da4WRRUcWKuB5-24" style="edgeStyle=orthogonalEdgeStyle;rounded=0;orthogonalLoop=1;jettySize=auto;html=1;strokeColor=light-dark(#000000,#000000);" edge="1" parent="1" source="uUEu9b7Da4WRRUcWKuB5-10" target="uUEu9b7Da4WRRUcWKuB5-6">
          <mxGeometry relative="1" as="geometry" />
        </mxCell>
        <mxCell id="uUEu9b7Da4WRRUcWKuB5-10" value="Mtf.Network" style="rounded=1;whiteSpace=wrap;html=1;textShadow=0;fillColor=light-dark(#5AFF41,#B5739D);strokeColor=light-dark(#000000,#0000FF);align=center;verticalAlign=middle;fontFamily=Helvetica;fontSize=12;fontColor=light-dark(#000000,#FFFFFF);fontStyle=1;strokeWidth=3;shadow=1;glass=1;" vertex="1" parent="1">
          <mxGeometry x="640" y="320" width="120" height="60" as="geometry" />
        </mxCell>
        <mxCell id="uUEu9b7Da4WRRUcWKuB5-11" value="Mtf.Permissions" style="rounded=1;whiteSpace=wrap;html=1;textShadow=0;fillColor=light-dark(#5AFF41,#97D077);strokeColor=light-dark(#000000,#0000FF);align=center;verticalAlign=middle;fontFamily=Helvetica;fontSize=12;fontColor=light-dark(#000000,#0000CC);fontStyle=1;strokeWidth=3;shadow=1;glass=1;" vertex="1" parent="1">
          <mxGeometry x="20" y="610" width="120" height="60" as="geometry" />
        </mxCell>
        <mxCell id="uUEu9b7Da4WRRUcWKuB5-96" style="edgeStyle=orthogonalEdgeStyle;rounded=0;orthogonalLoop=1;jettySize=auto;html=1;exitX=0.5;exitY=1;exitDx=0;exitDy=0;entryX=0.5;entryY=0;entryDx=0;entryDy=0;" edge="1" parent="1" source="uUEu9b7Da4WRRUcWKuB5-12" target="uUEu9b7Da4WRRUcWKuB5-6">
          <mxGeometry relative="1" as="geometry" />
        </mxCell>
        <mxCell id="uUEu9b7Da4WRRUcWKuB5-12" value="Mtf.Database" style="rounded=1;whiteSpace=wrap;html=1;textShadow=0;fillColor=light-dark(#5AFF41,#97D077);strokeColor=light-dark(#000000,#0000FF);align=center;verticalAlign=middle;fontFamily=Helvetica;fontSize=12;fontColor=light-dark(#000000,#0000CC);fontStyle=1;strokeWidth=3;shadow=1;glass=1;" vertex="1" parent="1">
          <mxGeometry x="340" y="110" width="120" height="60" as="geometry" />
        </mxCell>
        <mxCell id="uUEu9b7Da4WRRUcWKuB5-30" style="edgeStyle=orthogonalEdgeStyle;rounded=0;orthogonalLoop=1;jettySize=auto;html=1;strokeColor=light-dark(#000000,#000000);" edge="1" parent="1" source="uUEu9b7Da4WRRUcWKuB5-13" target="uUEu9b7Da4WRRUcWKuB5-6">
          <mxGeometry relative="1" as="geometry">
            <Array as="points">
              <mxPoint x="440" y="230" />
            </Array>
          </mxGeometry>
        </mxCell>
        <mxCell id="uUEu9b7Da4WRRUcWKuB5-13" value="Mtf.HardwareKey" style="rounded=1;whiteSpace=wrap;html=1;textShadow=0;fillColor=light-dark(#5AFF41,#97D077);strokeColor=light-dark(#000000,#0000FF);align=center;verticalAlign=middle;fontFamily=Helvetica;fontSize=12;fontColor=light-dark(#000000,#0000CC);fontStyle=1;strokeWidth=3;shadow=1;glass=1;" vertex="1" parent="1">
          <mxGeometry x="510" y="210" width="120" height="60" as="geometry" />
        </mxCell>
        <mxCell id="uUEu9b7Da4WRRUcWKuB5-14" value="Mtf.Joystick" style="rounded=1;whiteSpace=wrap;html=1;textShadow=0;fillColor=light-dark(#5AFF41,#97D077);strokeColor=light-dark(#000000,#0000FF);align=center;verticalAlign=middle;fontFamily=Helvetica;fontSize=12;fontColor=light-dark(#000000,#0000CC);fontStyle=1;strokeWidth=3;shadow=1;glass=1;" vertex="1" parent="1">
          <mxGeometry x="20" y="525" width="120" height="60" as="geometry" />
        </mxCell>
        <mxCell id="uUEu9b7Da4WRRUcWKuB5-28" style="edgeStyle=orthogonalEdgeStyle;rounded=0;orthogonalLoop=1;jettySize=auto;html=1;strokeColor=light-dark(#000000,#000000);" edge="1" parent="1">
          <mxGeometry relative="1" as="geometry">
            <mxPoint x="230" y="230" as="sourcePoint" />
            <mxPoint x="380" y="320" as="targetPoint" />
            <Array as="points">
              <mxPoint x="380" y="230" />
            </Array>
          </mxGeometry>
        </mxCell>
        <mxCell id="uUEu9b7Da4WRRUcWKuB5-15" value="Mtf.LanguageService.Windows.Forms" style="rounded=1;whiteSpace=wrap;html=1;textShadow=0;fillColor=light-dark(#5AFF41,#67AB9F);strokeColor=light-dark(#000000,#0000FF);align=center;verticalAlign=middle;fontFamily=Helvetica;fontSize=12;fontColor=light-dark(#000000,#FFFFFF);fontStyle=1;strokeWidth=3;shadow=1;glass=1;" vertex="1" parent="1">
          <mxGeometry x="10" y="200" width="220" height="60" as="geometry" />
        </mxCell>
        <mxCell id="uUEu9b7Da4WRRUcWKuB5-29" style="edgeStyle=orthogonalEdgeStyle;rounded=0;orthogonalLoop=1;jettySize=auto;html=1;entryX=0;entryY=0.5;entryDx=0;entryDy=0;strokeColor=light-dark(#000000,#000000);" edge="1" parent="1" source="uUEu9b7Da4WRRUcWKuB5-16" target="uUEu9b7Da4WRRUcWKuB5-6">
          <mxGeometry relative="1" as="geometry" />
        </mxCell>
        <mxCell id="uUEu9b7Da4WRRUcWKuB5-16" value="Mtf.LanguageService.WPF" style="rounded=1;whiteSpace=wrap;html=1;textShadow=0;fillColor=light-dark(#5AFF41,#67AB9F);strokeColor=light-dark(#000000,#0000FF);align=center;verticalAlign=middle;fontFamily=Helvetica;fontSize=12;fontColor=light-dark(#000000,#FFFFFF);fontStyle=1;strokeWidth=3;shadow=1;glass=1;" vertex="1" parent="1">
          <mxGeometry x="20" y="320" width="170" height="60" as="geometry" />
        </mxCell>
        <mxCell id="uUEu9b7Da4WRRUcWKuB5-17" value="Mtf.MessageBoxes" style="rounded=1;whiteSpace=wrap;html=1;textShadow=0;fillColor=light-dark(#5AFF41,#97D077);strokeColor=light-dark(#000000,#0000FF);align=center;verticalAlign=middle;fontFamily=Helvetica;fontSize=12;fontColor=light-dark(#000000,#0000CC);fontStyle=1;strokeWidth=3;shadow=1;glass=1;" vertex="1" parent="1">
          <mxGeometry x="770" y="500" width="120" height="60" as="geometry" />
        </mxCell>
        <mxCell id="uUEu9b7Da4WRRUcWKuB5-19" value="Mtf.MAUI.Controls" style="rounded=1;whiteSpace=wrap;html=1;textShadow=0;fillColor=light-dark(#5AFF41,#97D077);strokeColor=light-dark(#000000,#0000FF);align=center;verticalAlign=middle;fontFamily=Helvetica;fontSize=12;fontColor=light-dark(#000000,#0000CC);fontStyle=1;strokeWidth=3;shadow=1;glass=1;" vertex="1" parent="1">
          <mxGeometry x="20" y="440" width="120" height="60" as="geometry" />
        </mxCell>
        <mxCell id="uUEu9b7Da4WRRUcWKuB5-22" style="edgeStyle=orthogonalEdgeStyle;rounded=0;orthogonalLoop=1;jettySize=auto;html=1;strokeColor=light-dark(#000000,#000000);" edge="1" parent="1" source="uUEu9b7Da4WRRUcWKuB5-20" target="uUEu9b7Da4WRRUcWKuB5-17">
          <mxGeometry relative="1" as="geometry">
            <Array as="points">
              <mxPoint x="830" y="480" />
            </Array>
          </mxGeometry>
        </mxCell>
        <mxCell id="uUEu9b7Da4WRRUcWKuB5-23" style="edgeStyle=orthogonalEdgeStyle;rounded=0;orthogonalLoop=1;jettySize=auto;html=1;strokeColor=light-dark(#000000,#000000);" edge="1" parent="1" source="uUEu9b7Da4WRRUcWKuB5-20" target="uUEu9b7Da4WRRUcWKuB5-10">
          <mxGeometry relative="1" as="geometry">
            <Array as="points">
              <mxPoint x="670" y="440" />
              <mxPoint x="670" y="440" />
            </Array>
          </mxGeometry>
        </mxCell>
        <mxCell id="uUEu9b7Da4WRRUcWKuB5-32" style="edgeStyle=orthogonalEdgeStyle;rounded=0;orthogonalLoop=1;jettySize=auto;html=1;entryX=0.5;entryY=0;entryDx=0;entryDy=0;strokeColor=light-dark(#000000,#000000);" edge="1" parent="1" source="uUEu9b7Da4WRRUcWKuB5-20" target="uUEu9b7Da4WRRUcWKuB5-31">
          <mxGeometry relative="1" as="geometry" />
        </mxCell>
        <mxCell id="uUEu9b7Da4WRRUcWKuB5-20" value="Mtf.Controls" style="rounded=1;whiteSpace=wrap;html=1;textShadow=0;fillColor=light-dark(#5AFF41,#FFB366);strokeColor=light-dark(#000000,#0000FF);align=center;verticalAlign=middle;fontFamily=Helvetica;fontSize=12;fontColor=light-dark(#000000,#0000CC);fontStyle=1;strokeWidth=3;shadow=1;glass=1;" vertex="1" parent="1">
          <mxGeometry x="600" y="450" width="120" height="60" as="geometry" />
        </mxCell>
        <mxCell id="uUEu9b7Da4WRRUcWKuB5-27" style="edgeStyle=orthogonalEdgeStyle;rounded=0;orthogonalLoop=1;jettySize=auto;html=1;entryX=0.5;entryY=1;entryDx=0;entryDy=0;strokeColor=light-dark(#000000,#000000);" edge="1" parent="1" source="uUEu9b7Da4WRRUcWKuB5-21" target="uUEu9b7Da4WRRUcWKuB5-9">
          <mxGeometry relative="1" as="geometry" />
        </mxCell>
        <mxCell id="uUEu9b7Da4WRRUcWKuB5-21" value="Mtf.Serial" style="rounded=1;whiteSpace=wrap;html=1;textShadow=0;fillColor=light-dark(#5AFF41,#97D077);strokeColor=light-dark(#000000,#0000FF);align=center;verticalAlign=middle;fontFamily=Helvetica;fontSize=12;fontColor=light-dark(#000000,#0000CC);fontStyle=1;strokeWidth=3;shadow=1;glass=1;" vertex="1" parent="1">
          <mxGeometry x="340" y="610" width="120" height="60" as="geometry" />
        </mxCell>
        <mxCell id="uUEu9b7Da4WRRUcWKuB5-99" style="edgeStyle=orthogonalEdgeStyle;rounded=0;orthogonalLoop=1;jettySize=auto;html=1;exitX=0;exitY=0.25;exitDx=0;exitDy=0;entryX=1;entryY=0.75;entryDx=0;entryDy=0;" edge="1" parent="1" source="uUEu9b7Da4WRRUcWKuB5-31" target="uUEu9b7Da4WRRUcWKuB5-6">
          <mxGeometry relative="1" as="geometry" />
        </mxCell>
        <mxCell id="uUEu9b7Da4WRRUcWKuB5-31" value="Mtf.Windows.Forms.Extensions" style="rounded=1;whiteSpace=wrap;html=1;textShadow=0;fillColor=light-dark(#5AFF41,#97D077);strokeColor=light-dark(#000000,#0000FF);align=center;verticalAlign=middle;fontFamily=Helvetica;fontSize=12;fontColor=light-dark(#000000,#0000CC);fontStyle=1;strokeWidth=3;shadow=1;glass=1;" vertex="1" parent="1">
          <mxGeometry x="560" y="555" width="200" height="60" as="geometry" />
        </mxCell>
        <mxCell id="uUEu9b7Da4WRRUcWKuB5-95" style="edgeStyle=orthogonalEdgeStyle;rounded=0;orthogonalLoop=1;jettySize=auto;html=1;entryX=0.25;entryY=1;entryDx=0;entryDy=0;" edge="1" parent="1" source="uUEu9b7Da4WRRUcWKuB5-33" target="uUEu9b7Da4WRRUcWKuB5-17">
          <mxGeometry relative="1" as="geometry">
            <Array as="points">
              <mxPoint x="530" y="630" />
              <mxPoint x="800" y="630" />
            </Array>
          </mxGeometry>
        </mxCell>
        <mxCell id="uUEu9b7Da4WRRUcWKuB5-33" value="Mtf.Controls.Video.Legacy" style="rounded=1;whiteSpace=wrap;html=1;textShadow=0;fillColor=light-dark(#5AFF41,#FFB366);strokeColor=light-dark(#000000,#0000FF);align=center;verticalAlign=middle;fontFamily=Helvetica;fontSize=12;fontColor=light-dark(#000000,#0000CC);fontStyle=1;strokeWidth=3;shadow=1;glass=1;" vertex="1" parent="1">
          <mxGeometry x="440" y="720" width="180" height="60" as="geometry" />
        </mxCell>
        <mxCell id="uUEu9b7Da4WRRUcWKuB5-36" style="edgeStyle=orthogonalEdgeStyle;rounded=0;orthogonalLoop=1;jettySize=auto;html=1;strokeColor=light-dark(#000000,#000000);" edge="1" parent="1" source="uUEu9b7Da4WRRUcWKuB5-35" target="uUEu9b7Da4WRRUcWKuB5-10">
          <mxGeometry relative="1" as="geometry" />
        </mxCell>
        <mxCell id="uUEu9b7Da4WRRUcWKuB5-35" value="Mtf.Controls.Video" style="rounded=1;whiteSpace=wrap;html=1;textShadow=0;fillColor=light-dark(#5AFF41,#FFB366);strokeColor=light-dark(#000000,#0000FF);align=center;verticalAlign=middle;fontFamily=Helvetica;fontSize=12;fontColor=light-dark(#000000,#0000CC);fontStyle=1;strokeWidth=3;shadow=1;glass=1;" vertex="1" parent="1">
          <mxGeometry x="610" y="110" width="180" height="60" as="geometry" />
        </mxCell>
        <mxCell id="uUEu9b7Da4WRRUcWKuB5-37" value="Mtf.Controls.Video.Chromium" style="rounded=1;whiteSpace=wrap;html=1;textShadow=0;fillColor=light-dark(#5AFF41,#FFB366);strokeColor=light-dark(#000000,#0000FF);align=center;verticalAlign=middle;fontFamily=Helvetica;fontSize=12;fontColor=light-dark(#000000,#0000CC);fontStyle=1;strokeWidth=3;shadow=1;glass=1;" vertex="1" parent="1">
          <mxGeometry x="20" y="720" width="180" height="60" as="geometry" />
        </mxCell>
        <mxCell id="uUEu9b7Da4WRRUcWKuB5-38" value="Mtf.Controls.Video.FFmpeg" style="rounded=1;whiteSpace=wrap;html=1;textShadow=0;fillColor=light-dark(#5AFF41,#FFB366);strokeColor=light-dark(#000000,#0000FF);align=center;verticalAlign=middle;fontFamily=Helvetica;fontSize=12;fontColor=light-dark(#000000,#0000CC);fontStyle=1;strokeWidth=3;shadow=1;glass=1;" vertex="1" parent="1">
          <mxGeometry x="230" y="720" width="180" height="60" as="geometry" />
        </mxCell>
        <mxCell id="uUEu9b7Da4WRRUcWKuB5-39" value="Mtf.Controls.Video.VLC" style="rounded=1;whiteSpace=wrap;html=1;textShadow=0;fillColor=light-dark(#5AFF41,#FFB366);strokeColor=light-dark(#000000,#0000FF);align=center;verticalAlign=middle;fontFamily=Helvetica;fontSize=12;fontColor=light-dark(#000000,#0000CC);fontStyle=1;strokeWidth=3;shadow=1;glass=1;" vertex="1" parent="1">
          <mxGeometry x="640" y="720" width="140" height="60" as="geometry" />
        </mxCell>
        <mxCell id="uUEu9b7Da4WRRUcWKuB5-40" value="Mtf.Network.Interfaces" style="rounded=1;whiteSpace=wrap;html=1;textShadow=0;fillColor=light-dark(#5AFF41,#B5739D);strokeColor=light-dark(#000000,#0000FF);align=center;verticalAlign=middle;fontFamily=Helvetica;fontSize=12;fontColor=light-dark(#000000,#FFFFFF);fontStyle=1;strokeWidth=3;shadow=1;glass=1;" vertex="1" parent="1">
          <mxGeometry x="260" y="820" width="150" height="60" as="geometry" />
        </mxCell>
        <mxCell id="uUEu9b7Da4WRRUcWKuB5-42" style="edgeStyle=orthogonalEdgeStyle;rounded=0;orthogonalLoop=1;jettySize=auto;html=1;exitX=1;exitY=0.5;exitDx=0;exitDy=0;strokeColor=light-dark(#000000,#000000);" edge="1" parent="1" source="uUEu9b7Da4WRRUcWKuB5-41" target="uUEu9b7Da4WRRUcWKuB5-40">
          <mxGeometry relative="1" as="geometry" />
        </mxCell>
        <mxCell id="uUEu9b7Da4WRRUcWKuB5-41" value="Mtf.Controls.Video.OpenCvSharp" style="rounded=1;whiteSpace=wrap;html=1;textShadow=0;fillColor=light-dark(#5AFF41,#FFB366);fontColor=light-dark(#000000,#0000CC);fontStyle=1;strokeColor=light-dark(#000000,#0000FF);align=center;verticalAlign=middle;fontFamily=Helvetica;fontSize=12;strokeWidth=3;shadow=1;glass=1;" vertex="1" parent="1">
          <mxGeometry x="20" y="820" width="210" height="60" as="geometry" />
        </mxCell>
        <mxCell id="uUEu9b7Da4WRRUcWKuB5-43" value="Mtf.Controls.Video.ActiveX" style="rounded=1;whiteSpace=wrap;html=1;textShadow=0;fillColor=light-dark(#5AFF41,#FFB366);strokeColor=light-dark(#000000,#0000FF);align=center;verticalAlign=middle;fontFamily=Helvetica;fontSize=12;fontColor=light-dark(#000000,#0000CC);fontStyle=1;strokeWidth=3;shadow=1;glass=1;" vertex="1" parent="1">
          <mxGeometry x="700" y="820" width="170" height="60" as="geometry" />
        </mxCell>
        <mxCell id="uUEu9b7Da4WRRUcWKuB5-44" style="edgeStyle=orthogonalEdgeStyle;rounded=0;orthogonalLoop=1;jettySize=auto;html=1;entryX=0.575;entryY=1.017;entryDx=0;entryDy=0;entryPerimeter=0;strokeColor=light-dark(#000000,#000000);" edge="1" parent="1" source="uUEu9b7Da4WRRUcWKuB5-43" target="uUEu9b7Da4WRRUcWKuB5-17">
          <mxGeometry relative="1" as="geometry">
            <Array as="points">
              <mxPoint x="840" y="580" />
            </Array>
          </mxGeometry>
        </mxCell>
        <mxCell id="uUEu9b7Da4WRRUcWKuB5-62" style="edgeStyle=orthogonalEdgeStyle;rounded=0;orthogonalLoop=1;jettySize=auto;html=1;entryX=0;entryY=0.5;entryDx=0;entryDy=0;strokeColor=light-dark(#000000,#1FFF18);align=center;verticalAlign=middle;fontFamily=Helvetica;fontSize=11;fontColor=default;labelBackgroundColor=default;endArrow=classic;" edge="1" parent="1" source="uUEu9b7Da4WRRUcWKuB5-46" target="uUEu9b7Da4WRRUcWKuB5-52">
          <mxGeometry relative="1" as="geometry" />
        </mxCell>
        <mxCell id="uUEu9b7Da4WRRUcWKuB5-46" value="Mtf.Controls.Sunell.IPR67" style="rounded=1;whiteSpace=wrap;html=1;textShadow=0;fillColor=light-dark(#FFFFFF,#FF52DC);strokeColor=default;align=center;verticalAlign=middle;fontFamily=Helvetica;fontSize=12;fontColor=default;labelBorderColor=none;glass=1;" vertex="1" parent="1">
          <mxGeometry x="900" y="530" width="160" height="60" as="geometry" />
        </mxCell>
        <mxCell id="uUEu9b7Da4WRRUcWKuB5-64" style="edgeStyle=orthogonalEdgeStyle;rounded=0;orthogonalLoop=1;jettySize=auto;html=1;entryX=1;entryY=0.5;entryDx=0;entryDy=0;" edge="1" parent="1" source="uUEu9b7Da4WRRUcWKuB5-47" target="uUEu9b7Da4WRRUcWKuB5-59">
          <mxGeometry relative="1" as="geometry" />
        </mxCell>
        <mxCell id="uUEu9b7Da4WRRUcWKuB5-65" style="edgeStyle=orthogonalEdgeStyle;rounded=0;orthogonalLoop=1;jettySize=auto;html=1;entryX=0;entryY=0.5;entryDx=0;entryDy=0;strokeColor=light-dark(#000000,#FF3333);align=center;verticalAlign=middle;fontFamily=Helvetica;fontSize=11;fontColor=default;labelBackgroundColor=default;endArrow=classic;" edge="1" parent="1" source="uUEu9b7Da4WRRUcWKuB5-47" target="uUEu9b7Da4WRRUcWKuB5-55">
          <mxGeometry relative="1" as="geometry" />
        </mxCell>
        <mxCell id="uUEu9b7Da4WRRUcWKuB5-47" value="LiveView.WebApi" style="rounded=1;whiteSpace=wrap;html=1;textShadow=0;fillColor=light-dark(#FFFFFF,#4147FF);glass=1;" vertex="1" parent="1">
          <mxGeometry x="1210" y="180" width="140" height="60" as="geometry" />
        </mxCell>
        <mxCell id="uUEu9b7Da4WRRUcWKuB5-60" style="edgeStyle=orthogonalEdgeStyle;rounded=0;orthogonalLoop=1;jettySize=auto;html=1;entryX=1;entryY=0.25;entryDx=0;entryDy=0;" edge="1" parent="1" source="uUEu9b7Da4WRRUcWKuB5-48" target="uUEu9b7Da4WRRUcWKuB5-10">
          <mxGeometry relative="1" as="geometry" />
        </mxCell>
        <mxCell id="uUEu9b7Da4WRRUcWKuB5-48" value="LiveView.Agent.Maui" style="rounded=1;whiteSpace=wrap;html=1;textShadow=0;fillColor=light-dark(#FFFFFF,#4147FF);glass=1;" vertex="1" parent="1">
          <mxGeometry x="910" y="270" width="140" height="60" as="geometry" />
        </mxCell>
        <mxCell id="uUEu9b7Da4WRRUcWKuB5-61" style="edgeStyle=orthogonalEdgeStyle;rounded=0;orthogonalLoop=1;jettySize=auto;html=1;entryX=0.75;entryY=0;entryDx=0;entryDy=0;" edge="1" parent="1" source="uUEu9b7Da4WRRUcWKuB5-49" target="uUEu9b7Da4WRRUcWKuB5-17">
          <mxGeometry relative="1" as="geometry">
            <Array as="points">
              <mxPoint x="860" y="480" />
            </Array>
          </mxGeometry>
        </mxCell>
        <mxCell id="uUEu9b7Da4WRRUcWKuB5-49" value="Mtf.Controls.Sunell.IPR66" style="rounded=1;whiteSpace=wrap;html=1;textShadow=0;fillColor=light-dark(#FFFFFF,#FF52DC);strokeColor=default;align=center;verticalAlign=middle;fontFamily=Helvetica;fontSize=12;fontColor=default;labelBorderColor=none;glass=1;" vertex="1" parent="1">
          <mxGeometry x="900" y="450" width="160" height="60" as="geometry" />
        </mxCell>
        <mxCell id="uUEu9b7Da4WRRUcWKuB5-81" style="edgeStyle=orthogonalEdgeStyle;rounded=0;orthogonalLoop=1;jettySize=auto;html=1;strokeColor=light-dark(#000000,#1FFF18);align=center;verticalAlign=middle;fontFamily=Helvetica;fontSize=11;fontColor=default;labelBackgroundColor=default;endArrow=classic;" edge="1" parent="1" source="uUEu9b7Da4WRRUcWKuB5-50" target="uUEu9b7Da4WRRUcWKuB5-52">
          <mxGeometry relative="1" as="geometry">
            <Array as="points">
              <mxPoint x="1380" y="660" />
              <mxPoint x="1380" y="660" />
            </Array>
          </mxGeometry>
        </mxCell>
        <mxCell id="uUEu9b7Da4WRRUcWKuB5-82" style="edgeStyle=orthogonalEdgeStyle;rounded=0;orthogonalLoop=1;jettySize=auto;html=1;exitX=0.25;exitY=0;exitDx=0;exitDy=0;entryX=1;entryY=0.75;entryDx=0;entryDy=0;" edge="1" parent="1" source="uUEu9b7Da4WRRUcWKuB5-50" target="uUEu9b7Da4WRRUcWKuB5-57">
          <mxGeometry relative="1" as="geometry" />
        </mxCell>
        <mxCell id="uUEu9b7Da4WRRUcWKuB5-50" value="LiveView.Agent" style="rounded=1;whiteSpace=wrap;html=1;textShadow=0;fillColor=light-dark(#FFFFFF,#CCCC00);strokeColor=default;align=center;verticalAlign=middle;fontFamily=Helvetica;fontSize=12;fontColor=light-dark(#000000,#0000FF);glass=1;" vertex="1" parent="1">
          <mxGeometry x="1530" y="630" width="140" height="60" as="geometry" />
        </mxCell>
        <mxCell id="uUEu9b7Da4WRRUcWKuB5-51" value="Watchdog" style="rounded=1;whiteSpace=wrap;html=1;textShadow=0;fillColor=light-dark(#FFFFFF,#CCCC00);strokeColor=default;align=center;verticalAlign=middle;fontFamily=Helvetica;fontSize=12;fontColor=light-dark(#000000,#0000FF);glass=1;" vertex="1" parent="1">
          <mxGeometry x="1090" y="720" width="140" height="60" as="geometry" />
        </mxCell>
        <mxCell id="uUEu9b7Da4WRRUcWKuB5-83" style="edgeStyle=orthogonalEdgeStyle;rounded=0;orthogonalLoop=1;jettySize=auto;html=1;exitX=1;exitY=0.25;exitDx=0;exitDy=0;entryX=0.393;entryY=0.979;entryDx=0;entryDy=0;entryPerimeter=0;strokeColor=light-dark(#000000,#FF3333);align=center;verticalAlign=middle;fontFamily=Helvetica;fontSize=11;fontColor=default;labelBackgroundColor=default;endArrow=classic;" edge="1" parent="1" source="uUEu9b7Da4WRRUcWKuB5-52" target="uUEu9b7Da4WRRUcWKuB5-55">
          <mxGeometry relative="1" as="geometry">
            <mxPoint x="1470" y="290" as="targetPoint" />
          </mxGeometry>
        </mxCell>
        <mxCell id="uUEu9b7Da4WRRUcWKuB5-52" value="LiveView.Core" style="rounded=1;whiteSpace=wrap;html=1;textShadow=0;fillColor=light-dark(#FFFFFF,#4147FF);glass=1;" vertex="1" parent="1">
          <mxGeometry x="1210" y="620" width="140" height="60" as="geometry" />
        </mxCell>
        <mxCell id="uUEu9b7Da4WRRUcWKuB5-75" style="edgeStyle=orthogonalEdgeStyle;rounded=0;orthogonalLoop=1;jettySize=auto;html=1;exitX=0.5;exitY=0;exitDx=0;exitDy=0;entryX=0.5;entryY=1;entryDx=0;entryDy=0;strokeColor=light-dark(#000000,#FF3333);align=center;verticalAlign=middle;fontFamily=Helvetica;fontSize=11;fontColor=default;labelBackgroundColor=default;endArrow=classic;" edge="1" parent="1" source="uUEu9b7Da4WRRUcWKuB5-53" target="uUEu9b7Da4WRRUcWKuB5-55">
          <mxGeometry relative="1" as="geometry" />
        </mxCell>
        <mxCell id="uUEu9b7Da4WRRUcWKuB5-77" style="edgeStyle=orthogonalEdgeStyle;rounded=0;orthogonalLoop=1;jettySize=auto;html=1;entryX=1;entryY=0.5;entryDx=0;entryDy=0;strokeColor=light-dark(#000000,#1FFF18);align=center;verticalAlign=middle;fontFamily=Helvetica;fontSize=11;fontColor=default;labelBackgroundColor=default;endArrow=classic;" edge="1" parent="1" source="uUEu9b7Da4WRRUcWKuB5-53" target="uUEu9b7Da4WRRUcWKuB5-52">
          <mxGeometry relative="1" as="geometry">
            <Array as="points">
              <mxPoint x="1380" y="390" />
              <mxPoint x="1380" y="650" />
            </Array>
          </mxGeometry>
        </mxCell>
        <mxCell id="uUEu9b7Da4WRRUcWKuB5-78" style="edgeStyle=orthogonalEdgeStyle;rounded=0;orthogonalLoop=1;jettySize=auto;html=1;entryX=0.5;entryY=0;entryDx=0;entryDy=0;" edge="1" parent="1" source="uUEu9b7Da4WRRUcWKuB5-53" target="uUEu9b7Da4WRRUcWKuB5-50">
          <mxGeometry relative="1" as="geometry" />
        </mxCell>
        <mxCell id="uUEu9b7Da4WRRUcWKuB5-53" value="LiveView" style="rounded=1;whiteSpace=wrap;html=1;textShadow=0;fillColor=light-dark(#FFFFFF,#CCCC00);strokeColor=default;align=center;verticalAlign=middle;fontFamily=Helvetica;fontSize=12;fontColor=light-dark(#000000,#0000FF);glass=1;" vertex="1" parent="1">
          <mxGeometry x="1530" y="310" width="140" height="60" as="geometry" />
        </mxCell>
        <mxCell id="uUEu9b7Da4WRRUcWKuB5-66" style="edgeStyle=orthogonalEdgeStyle;rounded=0;orthogonalLoop=1;jettySize=auto;html=1;entryX=0.5;entryY=0;entryDx=0;entryDy=0;strokeColor=light-dark(#000000,#9999FF);" edge="1" parent="1" source="uUEu9b7Da4WRRUcWKuB5-54" target="uUEu9b7Da4WRRUcWKuB5-56">
          <mxGeometry relative="1" as="geometry" />
        </mxCell>
        <mxCell id="uUEu9b7Da4WRRUcWKuB5-71" style="edgeStyle=orthogonalEdgeStyle;rounded=0;orthogonalLoop=1;jettySize=auto;html=1;exitX=0;exitY=0.5;exitDx=0;exitDy=0;entryX=0;entryY=0.25;entryDx=0;entryDy=0;strokeColor=light-dark(#000000,#1FFF18);align=center;verticalAlign=middle;fontFamily=Helvetica;fontSize=11;fontColor=default;labelBackgroundColor=default;endArrow=classic;" edge="1" parent="1" source="uUEu9b7Da4WRRUcWKuB5-54" target="uUEu9b7Da4WRRUcWKuB5-52">
          <mxGeometry relative="1" as="geometry">
            <Array as="points">
              <mxPoint x="1200" y="300" />
              <mxPoint x="1200" y="635" />
            </Array>
          </mxGeometry>
        </mxCell>
        <mxCell id="uUEu9b7Da4WRRUcWKuB5-54" value="CameraApp" style="rounded=1;whiteSpace=wrap;html=1;textShadow=0;fillColor=light-dark(#FFFFFF,#CCCC00);strokeColor=default;align=center;verticalAlign=middle;fontFamily=Helvetica;fontSize=12;fontColor=light-dark(#000000,#0000FF);glass=1;" vertex="1" parent="1">
          <mxGeometry x="1210" y="270" width="140" height="60" as="geometry" />
        </mxCell>
        <mxCell id="uUEu9b7Da4WRRUcWKuB5-85" style="edgeStyle=orthogonalEdgeStyle;rounded=0;orthogonalLoop=1;jettySize=auto;html=1;entryX=0.75;entryY=0;entryDx=0;entryDy=0;" edge="1" parent="1" source="uUEu9b7Da4WRRUcWKuB5-55" target="uUEu9b7Da4WRRUcWKuB5-12">
          <mxGeometry relative="1" as="geometry">
            <Array as="points">
              <mxPoint x="1490" y="90" />
              <mxPoint x="430" y="90" />
            </Array>
          </mxGeometry>
        </mxCell>
        <mxCell id="uUEu9b7Da4WRRUcWKuB5-55" value="Database" style="rounded=1;whiteSpace=wrap;html=1;textShadow=0;fillColor=light-dark(#FFFFFF,#4147FF);glass=1;" vertex="1" parent="1">
          <mxGeometry x="1420" y="180" width="140" height="60" as="geometry" />
        </mxCell>
        <mxCell id="uUEu9b7Da4WRRUcWKuB5-69" style="edgeStyle=orthogonalEdgeStyle;rounded=0;orthogonalLoop=1;jettySize=auto;html=1;strokeColor=light-dark(#000000,#1FFF18);align=center;verticalAlign=middle;fontFamily=Helvetica;fontSize=11;fontColor=default;labelBackgroundColor=default;endArrow=classic;" edge="1" parent="1" source="uUEu9b7Da4WRRUcWKuB5-56" target="uUEu9b7Da4WRRUcWKuB5-52">
          <mxGeometry relative="1" as="geometry" />
        </mxCell>
        <mxCell id="uUEu9b7Da4WRRUcWKuB5-70" style="edgeStyle=orthogonalEdgeStyle;rounded=0;orthogonalLoop=1;jettySize=auto;html=1;exitX=1;exitY=0.5;exitDx=0;exitDy=0;entryX=0.25;entryY=1;entryDx=0;entryDy=0;strokeColor=light-dark(#000000,#FF3333);align=center;verticalAlign=middle;fontFamily=Helvetica;fontSize=11;fontColor=default;labelBackgroundColor=default;endArrow=classic;" edge="1" parent="1" source="uUEu9b7Da4WRRUcWKuB5-56" target="uUEu9b7Da4WRRUcWKuB5-55">
          <mxGeometry relative="1" as="geometry" />
        </mxCell>
        <mxCell id="uUEu9b7Da4WRRUcWKuB5-72" style="edgeStyle=orthogonalEdgeStyle;rounded=0;orthogonalLoop=1;jettySize=auto;html=1;entryX=1;entryY=0.5;entryDx=0;entryDy=0;" edge="1" parent="1" source="uUEu9b7Da4WRRUcWKuB5-56" target="uUEu9b7Da4WRRUcWKuB5-49">
          <mxGeometry relative="1" as="geometry" />
        </mxCell>
        <mxCell id="uUEu9b7Da4WRRUcWKuB5-73" style="edgeStyle=orthogonalEdgeStyle;rounded=0;orthogonalLoop=1;jettySize=auto;html=1;entryX=1;entryY=0.25;entryDx=0;entryDy=0;" edge="1" parent="1" source="uUEu9b7Da4WRRUcWKuB5-56" target="uUEu9b7Da4WRRUcWKuB5-46">
          <mxGeometry relative="1" as="geometry" />
        </mxCell>
        <mxCell id="uUEu9b7Da4WRRUcWKuB5-56" value="CameraForms" style="rounded=1;whiteSpace=wrap;html=1;textShadow=0;fillColor=light-dark(#FFFFFF,#4147FF);glass=1;" vertex="1" parent="1">
          <mxGeometry x="1210" y="480" width="140" height="60" as="geometry" />
        </mxCell>
        <mxCell id="uUEu9b7Da4WRRUcWKuB5-89" style="edgeStyle=orthogonalEdgeStyle;rounded=0;orthogonalLoop=1;jettySize=auto;html=1;exitX=0.75;exitY=1;exitDx=0;exitDy=0;entryX=0;entryY=0.75;entryDx=0;entryDy=0;strokeColor=light-dark(#000000,#1FFF18);" edge="1" parent="1" source="uUEu9b7Da4WRRUcWKuB5-57" target="uUEu9b7Da4WRRUcWKuB5-52">
          <mxGeometry relative="1" as="geometry">
            <Array as="points">
              <mxPoint x="1015" y="430" />
              <mxPoint x="1110" y="430" />
              <mxPoint x="1110" y="665" />
            </Array>
          </mxGeometry>
        </mxCell>
        <mxCell id="uUEu9b7Da4WRRUcWKuB5-57" value="Sequence" style="rounded=1;whiteSpace=wrap;html=1;textShadow=0;fillColor=light-dark(#FFFFFF,#CCCC00);strokeColor=default;align=center;verticalAlign=middle;fontFamily=Helvetica;fontSize=12;fontColor=light-dark(#000000,#0000FF);glass=1;" vertex="1" parent="1">
          <mxGeometry x="910" y="360" width="140" height="60" as="geometry" />
        </mxCell>
        <mxCell id="uUEu9b7Da4WRRUcWKuB5-58" value="UpgradeCodeGenerator" style="rounded=1;whiteSpace=wrap;html=1;textShadow=0;fillColor=light-dark(#FFFFFF,#CCCC00);fontColor=light-dark(#000000,#0000FF);glass=1;" vertex="1" parent="1">
          <mxGeometry x="900" y="720" width="150" height="60" as="geometry" />
        </mxCell>
        <mxCell id="uUEu9b7Da4WRRUcWKuB5-63" style="edgeStyle=orthogonalEdgeStyle;rounded=0;orthogonalLoop=1;jettySize=auto;html=1;" edge="1" parent="1" source="uUEu9b7Da4WRRUcWKuB5-59" target="uUEu9b7Da4WRRUcWKuB5-12">
          <mxGeometry relative="1" as="geometry">
            <Array as="points">
              <mxPoint x="980" y="70" />
              <mxPoint x="400" y="70" />
            </Array>
          </mxGeometry>
        </mxCell>
        <mxCell id="uUEu9b7Da4WRRUcWKuB5-59" value="Mtf.Web" style="rounded=1;whiteSpace=wrap;html=1;textShadow=0;fillColor=light-dark(#FFFFFF,#FF52DC);labelBorderColor=none;glass=1;" vertex="1" parent="1">
          <mxGeometry x="910" y="180" width="140" height="60" as="geometry" />
        </mxCell>
        <mxCell id="uUEu9b7Da4WRRUcWKuB5-67" style="edgeStyle=orthogonalEdgeStyle;rounded=0;orthogonalLoop=1;jettySize=auto;html=1;exitX=1;exitY=0.5;exitDx=0;exitDy=0;entryX=0.071;entryY=1;entryDx=0;entryDy=0;entryPerimeter=0;strokeColor=light-dark(#000000,#FF3333);" edge="1" parent="1" source="uUEu9b7Da4WRRUcWKuB5-54" target="uUEu9b7Da4WRRUcWKuB5-55">
          <mxGeometry relative="1" as="geometry" />
        </mxCell>
        <mxCell id="uUEu9b7Da4WRRUcWKuB5-80" style="edgeStyle=orthogonalEdgeStyle;rounded=0;orthogonalLoop=1;jettySize=auto;html=1;entryX=0.993;entryY=0.633;entryDx=0;entryDy=0;entryPerimeter=0;" edge="1" parent="1" source="uUEu9b7Da4WRRUcWKuB5-50" target="uUEu9b7Da4WRRUcWKuB5-54">
          <mxGeometry relative="1" as="geometry">
            <Array as="points">
              <mxPoint x="1410" y="650" />
              <mxPoint x="1410" y="308" />
            </Array>
          </mxGeometry>
        </mxCell>
        <mxCell id="uUEu9b7Da4WRRUcWKuB5-84" style="edgeStyle=orthogonalEdgeStyle;rounded=0;orthogonalLoop=1;jettySize=auto;html=1;exitX=1;exitY=0.5;exitDx=0;exitDy=0;entryX=0;entryY=0.25;entryDx=0;entryDy=0;strokeColor=light-dark(#000000,#9999FF);align=center;verticalAlign=middle;fontFamily=Helvetica;fontSize=11;fontColor=default;labelBackgroundColor=default;endArrow=classic;" edge="1" parent="1" source="uUEu9b7Da4WRRUcWKuB5-48" target="uUEu9b7Da4WRRUcWKuB5-56">
          <mxGeometry relative="1" as="geometry">
            <Array as="points">
              <mxPoint x="1170" y="300" />
              <mxPoint x="1170" y="495" />
            </Array>
          </mxGeometry>
        </mxCell>
        <mxCell id="uUEu9b7Da4WRRUcWKuB5-86" style="edgeStyle=orthogonalEdgeStyle;rounded=0;orthogonalLoop=1;jettySize=auto;html=1;exitX=0.5;exitY=1;exitDx=0;exitDy=0;entryX=0.329;entryY=0.041;entryDx=0;entryDy=0;entryPerimeter=0;strokeColor=light-dark(#000000,#9999FF);align=center;verticalAlign=middle;fontFamily=Helvetica;fontSize=11;fontColor=default;labelBackgroundColor=default;endArrow=classic;" edge="1" parent="1" source="uUEu9b7Da4WRRUcWKuB5-57" target="uUEu9b7Da4WRRUcWKuB5-56">
          <mxGeometry relative="1" as="geometry">
            <Array as="points">
              <mxPoint x="980" y="440" />
              <mxPoint x="1256" y="440" />
            </Array>
          </mxGeometry>
        </mxCell>
        <mxCell id="uUEu9b7Da4WRRUcWKuB5-88" style="edgeStyle=orthogonalEdgeStyle;rounded=0;orthogonalLoop=1;jettySize=auto;html=1;exitX=1;exitY=0.25;exitDx=0;exitDy=0;entryX=0.165;entryY=1.022;entryDx=0;entryDy=0;entryPerimeter=0;strokeColor=light-dark(#000000,#FF3333);align=center;verticalAlign=middle;fontFamily=Helvetica;fontSize=11;fontColor=default;labelBackgroundColor=default;endArrow=classic;" edge="1" parent="1" source="uUEu9b7Da4WRRUcWKuB5-57" target="uUEu9b7Da4WRRUcWKuB5-55">
          <mxGeometry relative="1" as="geometry" />
        </mxCell>
        <mxCell id="uUEu9b7Da4WRRUcWKuB5-91" style="edgeStyle=orthogonalEdgeStyle;rounded=0;orthogonalLoop=1;jettySize=auto;html=1;entryX=0.833;entryY=0.002;entryDx=0;entryDy=0;entryPerimeter=0;" edge="1" parent="1" source="uUEu9b7Da4WRRUcWKuB5-53" target="uUEu9b7Da4WRRUcWKuB5-57">
          <mxGeometry relative="1" as="geometry" />
        </mxCell>
      </root>
    </mxGraphModel>
  </diagram>
</mxfile>
